<svg viewBox="0 0 256 256" fill="none" xmlns="http://www.w3.org/2000/svg">
    <symbol id="icon-bell" viewBox="0 0 17 17" fill="currentColor">
        <path d="M7.08334 14.875H9.91667C9.91667 15.2507 9.76742 15.6111 9.50174 15.8767C9.23606 16.1424 8.87573 16.2917 8.50001 16.2917C8.12428 16.2917 7.76395 16.1424 7.49827 15.8767C7.23259 15.6111 7.08334 15.2507 7.08334 14.875ZM2.17884 13.0213C2.12521 12.8918 2.1112 12.7494 2.13856 12.6119C2.16592 12.4745 2.23343 12.3483 2.33255 12.2492L3.54167 11.0401V7.08333C3.54395 5.89226 3.97453 4.74175 4.75479 3.84185C5.53505 2.94194 6.61295 2.35269 7.79167 2.18166V1.41666C7.79167 1.2288 7.8663 1.04863 7.99914 0.915794C8.13198 0.782956 8.31214 0.708328 8.50001 0.708328C8.68787 0.708328 8.86803 0.782956 9.00087 0.915794C9.13371 1.04863 9.20834 1.2288 9.20834 1.41666V2.18166C10.3871 2.35269 11.465 2.94194 12.2452 3.84185C13.0255 4.74175 13.4561 5.89226 13.4583 7.08333V11.0401L14.6675 12.2492C14.7665 12.3483 14.8339 12.4745 14.8613 12.6118C14.8886 12.7492 14.8745 12.8916 14.8209 13.021C14.7673 13.1505 14.6766 13.2611 14.5601 13.3389C14.4437 13.4167 14.3067 13.4583 14.1667 13.4583H2.83334C2.69325 13.4584 2.55631 13.4169 2.43981 13.3391C2.32331 13.2613 2.23249 13.1507 2.17884 13.0213ZM4.54326 12.0417H12.4568L12.2492 11.8341C12.1164 11.7013 12.0417 11.5212 12.0417 11.3333V7.08333C12.0417 6.14402 11.6685 5.24318 11.0043 4.57899C10.3402 3.9148 9.43931 3.54166 8.50001 3.54166C7.5607 3.54166 6.65986 3.9148 5.99567 4.57899C5.33148 5.24318 4.95834 6.14402 4.95834 7.08333V11.3333C4.9583 11.5212 4.88364 11.7013 4.7508 11.8341L4.54326 12.0417Z"
              fill="#262626"/>
    </symbol>
    <symbol id="icon-instruction" xmlns="http://www.w3.org/2000/svg" viewBox="0 0 122.88 122.88"
            style="enable-background:new 0 0 122.88 122.88">
        <g>
            <path d="M61.44,9.23c-1.85,0-3.64,0.08-5.35,0.25c-1.71,0.17-3.44,0.42-5.17,0.77c-1.72,0.34-3.39,0.77-5,1.26 c-1.59,0.49-3.16,1.07-4.7,1.72l-0.1,0.05l0,0c-1.63,0.7-3.18,1.45-4.67,2.25c-1.5,0.81-2.94,1.68-4.31,2.6 c-1.38,0.93-2.72,1.92-3.99,2.97c-1.27,1.05-2.5,2.16-3.68,3.35l-0.04,0.04c-1.18,1.18-2.29,2.4-3.33,3.66 c-1.05,1.28-2.04,2.61-2.97,3.99c-0.92,1.36-1.78,2.8-2.59,4.3c-0.8,1.49-1.56,3.05-2.26,4.67l-0.05,0.11l0,0l-0.07,0.14 c-0.63,1.5-1.19,3.04-1.67,4.61c-0.49,1.59-0.9,3.23-1.24,4.93c-0.35,1.73-0.6,3.45-0.77,5.17c-0.17,1.72-0.25,3.5-0.25,5.35 c0,1.85,0.08,3.64,0.25,5.35c0.17,1.71,0.42,3.44,0.77,5.17c0.35,1.72,0.77,3.39,1.27,5c0.49,1.57,1.05,3.13,1.7,4.66 c0.04,0.07,0.07,0.14,0.1,0.21c0.69,1.6,1.43,3.13,2.23,4.6c0.81,1.5,1.68,2.94,2.59,4.3c0.93,1.39,1.92,2.72,2.98,4 c1.02,1.24,2.11,2.44,3.26,3.59c0.07,0.06,0.13,0.12,0.19,0.19c1.16,1.16,2.36,2.24,3.59,3.26c1.28,1.05,2.61,2.04,3.99,2.97 c1.36,0.92,2.8,1.78,4.3,2.59c1.49,0.8,3.05,1.56,4.67,2.26l0.21,0.1c1.52,0.64,3.07,1.2,4.67,1.69c1.58,0.49,3.23,0.9,4.92,1.24 c1.73,0.35,3.45,0.6,5.17,0.77c1.72,0.17,3.5,0.25,5.35,0.25c1.85,0,3.64-0.08,5.35-0.25c1.71-0.17,3.44-0.42,5.17-0.77 c1.72-0.35,3.39-0.77,5-1.27c1.59-0.49,3.16-1.07,4.71-1.73l0.09-0.04l0-0.01c1.63-0.7,3.18-1.45,4.67-2.25 c1.5-0.81,2.94-1.68,4.31-2.6c1.38-0.93,2.72-1.92,3.99-2.97c1.25-1.03,2.45-2.12,3.62-3.29c0.06-0.06,0.11-0.12,0.18-0.18 c1.15-1.15,2.23-2.35,3.25-3.58c1.05-1.28,2.05-2.61,2.98-4c0.92-1.36,1.78-2.8,2.59-4.3c0.8-1.49,1.56-3.04,2.26-4.67l0.1-0.22 c0.64-1.51,1.2-3.06,1.69-4.65c0.49-1.59,0.9-3.23,1.24-4.93c0.35-1.73,0.6-3.45,0.77-5.17c0.17-1.72,0.25-3.5,0.25-5.35 c0-1.85-0.08-3.64-0.25-5.35c-0.17-1.71-0.42-3.44-0.77-5.17c-0.35-1.72-0.77-3.39-1.27-5c-0.49-1.59-1.07-3.16-1.73-4.71 l-0.04-0.09l0,0c-0.7-1.63-1.45-3.18-2.25-4.67c-0.81-1.5-1.68-2.94-2.59-4.3c-0.93-1.38-1.92-2.72-2.97-3.99 c-1.02-1.24-2.12-2.45-3.28-3.61c-0.07-0.06-0.13-0.12-0.18-0.18c-1.16-1.16-2.35-2.24-3.59-3.26c-1.28-1.05-2.61-2.04-3.99-2.97 c-1.37-0.92-2.8-1.78-4.3-2.59c-1.49-0.8-3.04-1.56-4.67-2.25l-0.19-0.09c-1.52-0.64-3.08-1.21-4.68-1.7 c-1.58-0.49-3.23-0.9-4.93-1.24c-1.73-0.35-3.45-0.6-5.17-0.77C65.08,9.31,63.29,9.23,61.44,9.23L61.44,9.23z M63.34,31.17 c2.19,0,3.91,0.63,5.16,1.88c1.24,1.25,1.87,2.96,1.87,5.17c0,2.24-1.07,4.22-3.21,5.97c-2.16,1.74-4.66,2.62-7.52,2.62 c-2.14,0-3.85-0.6-5.16-1.8c-1.31-1.22-1.96-2.79-1.96-4.75c0-2.47,1.07-4.59,3.19-6.4C57.82,32.06,60.37,31.17,63.34,31.17 L63.34,31.17L63.34,31.17z M75.55,91.71H47.33v-4.75h5.3V57.95h-5.3v-3.78h13.19c3.33,0,6.61-0.4,9.85-1.22v34.01h5.18L75.55,91.71 L75.55,91.71L75.55,91.71z M49.12,1.2c1.96-0.39,3.99-0.69,6.08-0.89C57.29,0.1,59.37,0,61.44,0c2.07,0,4.15,0.1,6.24,0.31 c2.09,0.2,4.12,0.5,6.08,0.89c1.94,0.39,3.88,0.88,5.82,1.48c1.88,0.58,3.74,1.26,5.58,2.04l0.19,0.07l0,0l0.06,0.02 c1.85,0.8,3.65,1.67,5.38,2.61c1.71,0.93,3.4,1.95,5.07,3.07c1.63,1.1,3.21,2.27,4.73,3.52c1.52,1.25,2.97,2.56,4.34,3.95 c1.38,1.38,2.7,2.83,3.95,4.34c1.25,1.52,2.42,3.09,3.52,4.73c1.09,1.63,2.11,3.32,3.06,5.06l0,0l0.01,0 c0.94,1.74,1.82,3.54,2.61,5.39c0.02,0.05,0.04,0.1,0.06,0.15c0.78,1.83,1.46,3.7,2.05,5.6c0.61,1.96,1.11,3.92,1.5,5.89 c0.39,1.96,0.69,3.99,0.89,6.08c0.2,2.09,0.3,4.17,0.3,6.24c0,2.07-0.1,4.15-0.31,6.24c-0.2,2.09-0.5,4.12-0.89,6.08 c-0.39,1.94-0.88,3.88-1.48,5.82c-0.58,1.89-1.27,3.76-2.05,5.62l-0.04,0.09l0,0l-0.05,0.11c-0.8,1.85-1.67,3.65-2.61,5.38 c-0.93,1.71-1.95,3.4-3.07,5.07c-1.1,1.63-2.27,3.21-3.52,4.73c-1.25,1.52-2.56,2.96-3.95,4.34c-1.38,1.38-2.83,2.7-4.35,3.95 c-1.52,1.25-3.09,2.42-4.72,3.51c-1.63,1.09-3.32,2.11-5.06,3.06c-1.78,0.96-3.57,1.84-5.39,2.62c-0.05,0.02-0.1,0.04-0.16,0.06 c-1.83,0.78-3.7,1.46-5.6,2.05c-1.96,0.61-3.92,1.11-5.88,1.5c-1.96,0.39-3.99,0.69-6.08,0.89c-2.09,0.2-4.17,0.3-6.24,0.3 s-4.15-0.1-6.24-0.3c-2.09-0.2-4.12-0.5-6.08-0.89c-1.94-0.39-3.88-0.88-5.82-1.48c-1.89-0.58-3.76-1.27-5.61-2.05l-0.2-0.08l0,0 c-1.85-0.8-3.65-1.67-5.38-2.61c-1.71-0.93-3.4-1.95-5.07-3.07c-1.63-1.09-3.21-2.27-4.72-3.51c-1.52-1.25-2.97-2.57-4.35-3.95 c-1.38-1.38-2.7-2.83-3.95-4.34c-1.25-1.52-2.42-3.1-3.52-4.73c-1.09-1.63-2.11-3.32-3.06-5.06c-0.97-1.78-1.84-3.58-2.62-5.4 c-0.02-0.05-0.04-0.1-0.06-0.15c-0.78-1.83-1.46-3.7-2.05-5.6c-0.61-1.96-1.11-3.93-1.5-5.89c-0.39-1.96-0.69-3.99-0.89-6.08 C0.1,65.59,0,63.51,0,61.44c0-2.07,0.1-4.15,0.31-6.24c0.2-2.09,0.5-4.12,0.89-6.08c0.39-1.94,0.88-3.88,1.48-5.82 c0.58-1.88,1.26-3.74,2.04-5.59l0.09-0.23l0,0c0.8-1.85,1.67-3.65,2.61-5.38c0.93-1.71,1.95-3.4,3.07-5.07 c1.1-1.63,2.27-3.21,3.52-4.73c1.25-1.52,2.56-2.96,3.95-4.34c1.38-1.38,2.83-2.7,4.34-3.95c1.52-1.25,3.09-2.42,4.73-3.52 c1.67-1.12,3.36-2.14,5.07-3.07l0.13-0.06c1.73-0.94,3.48-1.78,5.26-2.55c0.05-0.02,0.1-0.04,0.15-0.06 c1.83-0.78,3.7-1.46,5.6-2.05C45.19,2.09,47.15,1.59,49.12,1.2L49.12,1.2z"/>
        </g>
    </symbol>
    <symbol id="icon-x" viewBox="0 0 256 256" fill="currentColor">
        <path d="M205.66,194.34a8,8,0,0,1-11.32,11.32L128,139.31,61.66,205.66a8,8,0,0,1-11.32-11.32L116.69,128,50.34,61.66A8,8,0,0,1,61.66,50.34L128,116.69l66.34-66.35a8,8,0,0,1,11.32,11.32L139.31,128Z"></path>
    </symbol>
    <symbol id="icon-check" viewBox="0 0 256 256" fill="currentColor">
        <path d="M229.66,77.66l-128,128a8,8,0,0,1-11.32,0l-56-56a8,8,0,0,1,11.32-11.32L96,188.69,218.34,66.34a8,8,0,0,1,11.32,11.32Z"></path>
    </symbol>
    <symbol id="icon-warning" viewBox="0 0 256 256" fill="currentColor">
        <path d="M236.8,188.09,149.35,36.22h0a24.76,24.76,0,0,0-42.7,0L19.2,188.09a23.51,23.51,0,0,0,0,23.72A24.35,24.35,0,0,0,40.55,224h174.9a24.35,24.35,0,0,0,21.33-12.19A23.51,23.51,0,0,0,236.8,188.09ZM222.93,203.8a8.5,8.5,0,0,1-7.48,4.2H40.55a8.5,8.5,0,0,1-7.48-4.2,7.59,7.59,0,0,1,0-7.72L120.52,44.21a8.75,8.75,0,0,1,15,0l87.45,151.87A7.59,7.59,0,0,1,222.93,203.8ZM120,144V104a8,8,0,0,1,16,0v40a8,8,0,0,1-16,0Zm20,36a12,12,0,1,1-12-12A12,12,0,0,1,140,180Z"></path>
    </symbol>
    <symbol id="icon-caret" viewBox="0 0 256 256" fill="currentColor">
        <path d="M213.66,101.66l-80,80a8,8,0,0,1-11.32,0l-80-80A8,8,0,0,1,53.66,90.34L128,164.69l74.34-74.35a8,8,0,0,1,11.32,11.32Z"></path>
    </symbol>
    <symbol id="icon-eye" viewBox="0 0 256 256" fill="currentColor">
        <path d="M247.31,124.76c-.35-.79-8.82-19.58-27.65-38.41C194.57,61.26,162.88,48,128,48S61.43,61.26,36.34,86.35C17.51,105.18,9,124,8.69,124.76a8,8,0,0,0,0,6.5c.35.79,8.82,19.57,27.65,38.4C61.43,194.74,93.12,208,128,208s66.57-13.26,91.66-38.34c18.83-18.83,27.3-37.61,27.65-38.4A8,8,0,0,0,247.31,124.76ZM128,192c-30.78,0-57.67-11.19-79.93-33.25A133.47,133.47,0,0,1,25,128,133.33,133.33,0,0,1,48.07,97.25C70.33,75.19,97.22,64,128,64s57.67,11.19,79.93,33.25A133.46,133.46,0,0,1,231.05,128C223.84,141.46,192.43,192,128,192Zm0-112a48,48,0,1,0,48,48A48.05,48.05,0,0,0,128,80Zm0,80a32,32,0,1,1,32-32A32,32,0,0,1,128,160Z"></path>
    </symbol>
    <symbol id="icon-plus" viewBox="0 0 256 256" fill="currentColor">
        <path d="M224,128a8,8,0,0,1-8,8H136v80a8,8,0,0,1-16,0V136H40a8,8,0,0,1,0-16h80V40a8,8,0,0,1,16,0v80h80A8,8,0,0,1,224,128Z"></path>
    </symbol>
    <symbol id="icon-circle" viewBox="0 -960 960 960" fill="currentColor">
        <path d="M480-80q-83 0-156-31.5T197-197q-54-54-85.5-127T80-480q0-83 31.5-156T197-763q54-54 127-85.5T480-880q83 0 156 31.5T763-763q54 54 85.5 127T880-480q0 83-31.5 156T763-197q-54 54-127 85.5T480-80Zm0-80q134 0 227-93t93-227q0-134-93-227t-227-93q-134 0-227 93t-93 227q0 134 93 227t227 93Zm0-320Z"/>
    </symbol>
    <symbol id="icon-fill-circle" viewBox="0 -960 960 960" fill="currentColor">
        <path d="M480-80q-83 0-156-31.5T197-197q-54-54-85.5-127T80-480q0-83 31.5-156T197-763q54-54 127-85.5T480-880q83 0 156 31.5T763-763q54 54 85.5 127T880-480q0 83-31.5 156T763-197q-54 54-127 85.5T480-80Z"/>
    </symbol>
    <symbol id="icon-half-circle" viewBox="0 -960 960 960" fill="currentColor">
        <path d="M480-80q-83 0-156-31.5T197-197q-54-54-85.5-127T80-480q0-83 31.5-156T197-763q54-54 127-85.5T480-880q83 0 156 31.5T763-763q54 54 85.5 127T880-480q0 83-31.5 156T763-197q-54 54-127 85.5T480-80Zm-40-82v-636q-121 15-200.5 106T160-480q0 121 79.5 212T440-162Zm80 0q30-5 59-13.5t55-24.5H520v38Zm0-118h210q8-9 14-19t12-21H520v40Zm0-120h270l4-20 4-20H520v40Zm0-120h278l-4-20-4-20H520v40Zm0-120h236q-6-11-12-21t-14-19H520v40Zm0-120h114q-26-16-55-24.5T520-798v38Z"/>
    </symbol>
    <symbol id="icon-plus-circle" viewBox="0 -960 960 960" fill="currentColor">
        <path d="M440-280h80v-160h160v-80H520v-160h-80v160H280v80h160v160Zm40 200q-83 0-156-31.5T197-197q-54-54-85.5-127T80-480q0-83 31.5-156T197-763q54-54 127-85.5T480-880q83 0 156 31.5T763-763q54 54 85.5 127T880-480q0 83-31.5 156T763-197q-54 54-127 85.5T480-80Zm0-80q134 0 227-93t93-227q0-134-93-227t-227-93q-134 0-227 93t-93 227q0 134 93 227t227 93Zm0-320Z"/>
    </symbol>
    <symbol id="icon-check-circle" viewBox="0 0 256 256" fill="currentColor">
        <path d="M172.24,99.76a6,6,0,0,1,0,8.48l-56,56a6,6,0,0,1-8.48,0l-24-24a6,6,0,0,1,8.48-8.48L112,151.51l51.76-51.75A6,6,0,0,1,172.24,99.76ZM230,128A102,102,0,1,1,128,26,102.12,102.12,0,0,1,230,128Zm-12,0a90,90,0,1,0-90,90A90.1,90.1,0,0,0,218,128Z"></path>
    </symbol>
    <symbol id="icon-x-circle" viewBox="0 0 256 256" fill="currentColor">
        <path d="M164.24,100.24,136.48,128l27.76,27.76a6,6,0,1,1-8.48,8.48L128,136.48l-27.76,27.76a6,6,0,0,1-8.48-8.48L119.52,128,91.76,100.24a6,6,0,0,1,8.48-8.48L128,119.52l27.76-27.76a6,6,0,0,1,8.48,8.48ZM230,128A102,102,0,1,1,128,26,102.12,102.12,0,0,1,230,128Zm-12,0a90,90,0,1,0-90,90A90.1,90.1,0,0,0,218,128Z"></path>
    </symbol>
    <symbol id="icon-warning" viewBox="0 0 256 256" fill="currentColor">
        <path d="M235.07,189.09,147.61,37.22h0a22.75,22.75,0,0,0-39.22,0L20.93,189.09a21.53,21.53,0,0,0,0,21.72A22.35,22.35,0,0,0,40.55,222h174.9a22.35,22.35,0,0,0,19.6-11.19A21.53,21.53,0,0,0,235.07,189.09ZM224.66,204.8a10.46,10.46,0,0,1-9.21,5.2H40.55a10.46,10.46,0,0,1-9.21-5.2,9.51,9.51,0,0,1,0-9.72L118.79,43.21a10.75,10.75,0,0,1,18.42,0l87.46,151.87A9.51,9.51,0,0,1,224.66,204.8ZM122,144V104a6,6,0,0,1,12,0v40a6,6,0,0,1-12,0Zm16,36a10,10,0,1,1-10-10A10,10,0,0,1,138,180Z"></path>
    </symbol>
    <symbol id="icon-circle-notch" viewBox="0 0 256 256" fill="currentColor">
        <path d="M232,128a104,104,0,0,1-208,0c0-41,23.81-78.36,60.66-95.27a8,8,0,0,1,6.68,14.54C60.15,61.59,40,93.27,40,128a88,88,0,0,0,176,0c0-34.73-20.15-66.41-51.34-80.73a8,8,0,0,1,6.68-14.54C208.19,49.64,232,87,232,128Z"></path>
    </symbol>
    <symbol id="icon-copy" viewBox="0 0 256 256" fill="currentColor">
        <path d="M216,32H88a8,8,0,0,0-8,8V80H40a8,8,0,0,0-8,8V216a8,8,0,0,0,8,8H168a8,8,0,0,0,8-8V176h40a8,8,0,0,0,8-8V40A8,8,0,0,0,216,32ZM160,208H48V96H160Zm48-48H176V88a8,8,0,0,0-8-8H96V48H208Z"></path>
    </symbol>
    <symbol id="icon-magnifying-glass" viewBox="0 0 256 256" fill="currentColor">
        <path d="M229.66,218.34l-50.07-50.06a88.11,88.11,0,1,0-11.31,11.31l50.06,50.07a8,8,0,0,0,11.32-11.32ZM40,112a72,72,0,1,1,72,72A72.08,72.08,0,0,1,40,112Z"></path>
    </symbol>
    <symbol id="icon-dots-three-outline" viewBox="0 0 256 256" fill="currentColor">
        <path d="M128,96a32,32,0,1,0,32,32A32,32,0,0,0,128,96Zm0,48a16,16,0,1,1,16-16A16,16,0,0,1,128,144ZM48,96a32,32,0,1,0,32,32A32,32,0,0,0,48,96Zm0,48a16,16,0,1,1,16-16A16,16,0,0,1,48,144ZM208,96a32,32,0,1,0,32,32A32,32,0,0,0,208,96Zm0,48a16,16,0,1,1,16-16A16,16,0,0,1,208,144Z"></path>
    </symbol>
    <symbol id="icon-trash" viewBox="0 0 256 256" fill="currentColor">
        <path d="M216,48H176V40a24,24,0,0,0-24-24H104A24,24,0,0,0,80,40v8H40a8,8,0,0,0,0,16h8V208a16,16,0,0,0,16,16H192a16,16,0,0,0,16-16V64h8a8,8,0,0,0,0-16ZM96,40a8,8,0,0,1,8-8h48a8,8,0,0,1,8,8v8H96Zm96,168H64V64H192ZM112,104v64a8,8,0,0,1-16,0V104a8,8,0,0,1,16,0Zm48,0v64a8,8,0,0,1-16,0V104a8,8,0,0,1,16,0Z"></path>
    </symbol>
    <symbol id="icon-barcode" viewBox="0 0 256 256" fill="currentColor">
        <path d="M232,48V88a8,8,0,0,1-16,0V56H184a8,8,0,0,1,0-16h40A8,8,0,0,1,232,48ZM72,200H40V168a8,8,0,0,0-16,0v40a8,8,0,0,0,8,8H72a8,8,0,0,0,0-16Zm152-40a8,8,0,0,0-8,8v32H184a8,8,0,0,0,0,16h40a8,8,0,0,0,8-8V168A8,8,0,0,0,224,160ZM32,96a8,8,0,0,0,8-8V56H72a8,8,0,0,0,0-16H32a8,8,0,0,0-8,8V88A8,8,0,0,0,32,96ZM80,80a8,8,0,0,0-8,8v80a8,8,0,0,0,16,0V88A8,8,0,0,0,80,80Zm104,88V88a8,8,0,0,0-16,0v80a8,8,0,0,0,16,0ZM144,80a8,8,0,0,0-8,8v80a8,8,0,0,0,16,0V88A8,8,0,0,0,144,80Zm-32,0a8,8,0,0,0-8,8v80a8,8,0,0,0,16,0V88A8,8,0,0,0,112,80Z"></path>
    </symbol>
    <symbol id="icon-printer" viewBox="0 0 256 256" fill="currentColor">
        <path d="M214.67,72H200V40a8,8,0,0,0-8-8H64a8,8,0,0,0-8,8V72H41.33C27.36,72,16,82.77,16,96v80a8,8,0,0,0,8,8H56v32a8,8,0,0,0,8,8H192a8,8,0,0,0,8-8V184h32a8,8,0,0,0,8-8V96C240,82.77,228.64,72,214.67,72ZM72,48H184V72H72ZM184,208H72V160H184Zm40-40H200V152a8,8,0,0,0-8-8H64a8,8,0,0,0-8,8v16H32V96c0-4.41,4.19-8,9.33-8H214.67c5.14,0,9.33,3.59,9.33,8Zm-24-52a12,12,0,1,1-12-12A12,12,0,0,1,200,116Z"></path>
    </symbol>
    <symbol id="icon-file-dashed" viewBox="0 0 256 256" fill="currentColor">
        <path d="M80,224a8,8,0,0,1-8,8H56a16,16,0,0,1-16-16V184a8,8,0,0,1,16,0v32H72A8,8,0,0,1,80,224ZM216,88v48a8,8,0,0,1-16,0V96H152a8,8,0,0,1-8-8V40H120a8,8,0,0,1,0-16h32a8,8,0,0,1,5.66,2.34l56,56A8,8,0,0,1,216,88Zm-56-8h28.69L160,51.31ZM80,24H56A16,16,0,0,0,40,40V64a8,8,0,0,0,16,0V40H80a8,8,0,0,0,0-16ZM208,168a8,8,0,0,0-8,8v40h-8a8,8,0,0,0,0,16h8a16,16,0,0,0,16-16V176A8,8,0,0,0,208,168ZM48,152a8,8,0,0,0,8-8V104a8,8,0,0,0-16,0v40A8,8,0,0,0,48,152Zm104,64H112a8,8,0,0,0,0,16h40a8,8,0,0,0,0-16Z"></path>
    </symbol>
    <symbol id="icon-check-square" viewBox="0 0 256 256" fill="currentColor">
        <path d="M173.66,98.34a8,8,0,0,1,0,11.32l-56,56a8,8,0,0,1-11.32,0l-24-24a8,8,0,0,1,11.32-11.32L112,148.69l50.34-50.35A8,8,0,0,1,173.66,98.34ZM224,48V208a16,16,0,0,1-16,16H48a16,16,0,0,1-16-16V48A16,16,0,0,1,48,32H208A16,16,0,0,1,224,48ZM208,208V48H48V208H208Z"></path>
    </symbol>
    <symbol id="icon-file-xls" viewBox="0 0 256 256" fill="currentColor">
        <path d="M156,208a8,8,0,0,1-8,8H120a8,8,0,0,1-8-8V152a8,8,0,0,1,16,0v48h20A8,8,0,0,1,156,208ZM92.65,145.49a8,8,0,0,0-11.16,1.86L68,166.24,54.51,147.35a8,8,0,1,0-13,9.3L58.17,180,41.49,203.35a8,8,0,0,0,13,9.3L68,193.76l13.49,18.89a8,8,0,0,0,13-9.3L77.83,180l16.68-23.35A8,8,0,0,0,92.65,145.49Zm98.94,25.82c-4-1.16-8.14-2.35-10.45-3.84-1.25-.82-1.23-1-1.12-1.9a4.54,4.54,0,0,1,2-3.67c4.6-3.12,15.34-1.72,19.82-.56a8,8,0,0,0,4.07-15.48c-2.11-.55-21-5.22-32.83,2.76a20.58,20.58,0,0,0-8.95,14.95c-2,15.88,13.65,20.41,23,23.11,12.06,3.49,13.12,4.92,12.78,7.59-.31,2.41-1.26,3.33-2.15,3.93-4.6,3.06-15.16,1.55-19.54.35A8,8,0,0,0,173.93,214a60.63,60.63,0,0,0,15.19,2c5.82,0,12.3-1,17.49-4.46a20.81,20.81,0,0,0,9.18-15.23C218,179,201.48,174.17,191.59,171.31ZM40,112V40A16,16,0,0,1,56,24h96a8,8,0,0,1,5.66,2.34l56,56A8,8,0,0,1,216,88v24a8,8,0,1,1-16,0V96H152a8,8,0,0,1-8-8V40H56v72a8,8,0,0,1-16,0ZM160,80h28.68L160,51.31Z"></path>
    </symbol>
    <symbol id="icon-telegram" viewBox="0 0 32 32" stroke-linecap="round" stroke-linejoin="round">
        <path d="M 26.070313 3.996094 C 25.734375 4.011719 25.417969 4.109375 25.136719 4.21875 L 25.132813 4.21875 C 24.847656 4.332031 23.492188 4.902344 21.433594 5.765625 C 19.375 6.632813 16.703125 7.757813 14.050781 8.875 C 8.753906 11.105469 3.546875 13.300781 3.546875 13.300781 L 3.609375 13.277344 C 3.609375 13.277344 3.25 13.394531 2.875 13.652344 C 2.683594 13.777344 2.472656 13.949219 2.289063 14.21875 C 2.105469 14.488281 1.957031 14.902344 2.011719 15.328125 C 2.101563 16.050781 2.570313 16.484375 2.90625 16.722656 C 3.246094 16.964844 3.570313 17.078125 3.570313 17.078125 L 3.578125 17.078125 L 8.460938 18.722656 C 8.679688 19.425781 9.949219 23.597656 10.253906 24.558594 C 10.433594 25.132813 10.609375 25.492188 10.828125 25.765625 C 10.933594 25.90625 11.058594 26.023438 11.207031 26.117188 C 11.265625 26.152344 11.328125 26.179688 11.390625 26.203125 C 11.410156 26.214844 11.429688 26.21875 11.453125 26.222656 L 11.402344 26.210938 C 11.417969 26.214844 11.429688 26.226563 11.441406 26.230469 C 11.480469 26.242188 11.507813 26.246094 11.558594 26.253906 C 12.332031 26.488281 12.953125 26.007813 12.953125 26.007813 L 12.988281 25.980469 L 15.871094 23.355469 L 20.703125 27.0625 L 20.8125 27.109375 C 21.820313 27.550781 22.839844 27.304688 23.378906 26.871094 C 23.921875 26.433594 24.132813 25.875 24.132813 25.875 L 24.167969 25.785156 L 27.902344 6.65625 C 28.007813 6.183594 28.035156 5.742188 27.917969 5.3125 C 27.800781 4.882813 27.5 4.480469 27.136719 4.265625 C 26.769531 4.046875 26.40625 3.980469 26.070313 3.996094 Z M 25.96875 6.046875 C 25.964844 6.109375 25.976563 6.101563 25.949219 6.222656 L 25.949219 6.234375 L 22.25 25.164063 C 22.234375 25.191406 22.207031 25.25 22.132813 25.308594 C 22.054688 25.371094 21.992188 25.410156 21.667969 25.28125 L 15.757813 20.75 L 12.1875 24.003906 L 12.9375 19.214844 C 12.9375 19.214844 22.195313 10.585938 22.59375 10.214844 C 22.992188 9.84375 22.859375 9.765625 22.859375 9.765625 C 22.886719 9.3125 22.257813 9.632813 22.257813 9.632813 L 10.082031 17.175781 L 10.078125 17.15625 L 4.242188 15.191406 L 4.242188 15.1875 C 4.238281 15.1875 4.230469 15.183594 4.226563 15.183594 C 4.230469 15.183594 4.257813 15.171875 4.257813 15.171875 L 4.289063 15.15625 L 4.320313 15.144531 C 4.320313 15.144531 9.53125 12.949219 14.828125 10.71875 C 17.480469 9.601563 20.152344 8.476563 22.207031 7.609375 C 24.261719 6.746094 25.78125 6.113281 25.867188 6.078125 C 25.949219 6.046875 25.910156 6.046875 25.96875 6.046875 Z"/>
    </symbol>
    <symbol id="icon-whatsapp" viewBox="0 0 24 24" stroke-linecap="round" stroke-linejoin="round">
        <path fill-rule="evenodd" clip-rule="evenodd"
              d="M18.403 5.633A8.919 8.919 0 0 0 12.053 3c-4.948 0-8.976 4.027-8.978 8.977 0 1.582.413 3.126 1.198 4.488L3 21.116l4.759-1.249a8.981 8.981 0 0 0 4.29 1.093h.004c4.947 0 8.975-4.027 8.977-8.977a8.926 8.926 0 0 0-2.627-6.35m-6.35 13.812h-.003a7.446 7.446 0 0 1-3.798-1.041l-.272-.162-2.824.741.753-2.753-.177-.282a7.448 7.448 0 0 1-1.141-3.971c.002-4.114 3.349-7.461 7.465-7.461a7.413 7.413 0 0 1 5.275 2.188 7.42 7.42 0 0 1 2.183 5.279c-.002 4.114-3.349 7.462-7.461 7.462m4.093-5.589c-.225-.113-1.327-.655-1.533-.73-.205-.075-.354-.112-.504.112s-.58.729-.711.879-.262.168-.486.056-.947-.349-1.804-1.113c-.667-.595-1.117-1.329-1.248-1.554s-.014-.346.099-.458c.101-.1.224-.262.336-.393.112-.131.149-.224.224-.374s.038-.281-.019-.393c-.056-.113-.505-1.217-.692-1.666-.181-.435-.366-.377-.504-.383a9.65 9.65 0 0 0-.429-.008.826.826 0 0 0-.599.28c-.206.225-.785.767-.785 1.871s.804 2.171.916 2.321c.112.15 1.582 2.415 3.832 3.387.536.231.954.369 1.279.473.537.171 1.026.146 1.413.089.431-.064 1.327-.542 1.514-1.066.187-.524.187-.973.131-1.067-.056-.094-.207-.151-.43-.263"/>
    </symbol>
    <symbol id="icon-facebook" viewBox="0 0 24 24" fill="none" stroke="currentColor" stroke-width="2"
            stroke-linecap="round" stroke-linejoin="round">
        <path d="M18 2h-3a5 5 0 0 0-5 5v3H7v4h3v8h4v-8h3l1-4h-4V7a1 1 0 0 1 1-1h3z"/>
    </symbol>
    <symbol id="icon-viber" viewBox="0 0 24 24" xmlns="http://www.w3.org/2000/svg">
        <path d="M7.96472 6.2019C7.77897 6.17476 7.58952 6.21205 7.42791 6.30756H7.41413C7.03892 6.52749 6.70092 6.80547 6.41269 7.13115C6.17316 7.40809 6.04322 7.68831 6.0091 7.95803C5.98875 8.11881 6.00253 8.27959 6.05044 8.43315L6.0675 8.44365C6.33722 9.2364 6.68963 9.99896 7.12013 10.7169C7.67467 11.7255 8.35713 12.6583 9.15057 13.4922L9.17419 13.5263L9.2116 13.5539L9.23522 13.5814L9.26278 13.6051C10.0997 14.4008 11.0347 15.0865 12.0453 15.6453C13.2003 16.274 13.9012 16.5713 14.3218 16.6947V16.7012C14.4452 16.7387 14.5574 16.7557 14.6703 16.7557C15.0288 16.7294 15.3682 16.5839 15.6343 16.3423C15.9585 16.054 16.2334 15.7146 16.4481 15.3376V15.331C16.6495 14.9517 16.5813 14.5927 16.2906 14.3499C15.7083 13.841 15.0788 13.389 14.4104 13C13.9628 12.7572 13.5081 12.9042 13.3237 13.1503L12.9306 13.6457C12.7291 13.8918 12.3629 13.8577 12.3629 13.8577L12.3524 13.8643C9.62175 13.1667 8.89332 10.4019 8.89332 10.4019C8.89332 10.4019 8.85919 10.0259 9.11185 9.83425L9.60403 9.43787C9.83963 9.24625 10.0037 8.79212 9.75103 8.3439C9.36477 7.67463 8.91373 7.04489 8.40441 6.46375C8.29306 6.32674 8.13685 6.23353 7.96341 6.20059L7.96472 6.2019Z"
              fill="black"/>
        <path d="M12.5792 5.00009C12.3031 5.00009 12.0792 5.22395 12.0792 5.50009C12.0792 5.77623 12.3031 6.00009 12.5792 6.00009C13.8437 6.00009 14.8944 6.41341 15.7245 7.20484C16.1518 7.63824 16.4844 8.15124 16.7028 8.71263C16.922 9.27613 17.0217 9.877 16.9961 10.4789C16.9844 10.7547 17.1985 10.9879 17.4744 10.9996C17.7503 11.0114 17.9835 10.7972 17.9952 10.5213C18.0267 9.7809 17.9039 9.04214 17.6347 8.35009C17.3655 7.65807 16.9558 7.02746 16.4307 6.49657L16.4207 6.48696C15.3907 5.50193 14.0851 5.00009 12.5792 5.00009Z"
              fill="black"/>
        <path d="M12.5452 6.64442C12.2691 6.64442 12.0452 6.86828 12.0452 7.14442C12.0452 7.42056 12.2691 7.64442 12.5452 7.64442H12.5615C13.474 7.70872 14.1379 8.01286 14.6034 8.5121C15.0799 9.02626 15.3267 9.66489 15.3084 10.4551C15.302 10.7311 15.5207 10.9601 15.7967 10.9665C16.0728 10.9729 16.3018 10.7543 16.3082 10.4782C16.3322 9.44071 15.9985 8.54607 15.3363 7.83174L15.3354 7.8308C14.6588 7.10472 13.7305 6.72061 12.6122 6.64554L12.5955 6.64442H12.5452Z"
              fill="black"/>
        <path d="M12.5263 8.31877C12.2505 8.30426 12.0152 8.51604 12.0007 8.7918C11.9862 9.06756 12.198 9.30287 12.4737 9.31739C12.8924 9.33943 13.1592 9.46499 13.327 9.63443C13.4956 9.8046 13.6216 10.0771 13.6446 10.5043C13.6595 10.7801 13.895 10.9916 14.1708 10.9767C14.4465 10.9619 14.658 10.7264 14.6432 10.4506C14.6109 9.85058 14.4231 9.32011 14.0376 8.93078C13.6513 8.54072 13.1238 8.35022 12.5263 8.31877Z"
              fill="black"/>
        <path fill-rule="evenodd" clip-rule="evenodd"
              d="M7.06673 2.38357C10.2488 1.67227 13.5487 1.67227 16.7308 2.38357L17.0699 2.45935C18.9667 2.88334 20.4637 4.33816 20.9418 6.22204C21.7495 9.40488 21.7495 12.7391 20.9418 15.9219C20.4637 17.8058 18.9666 19.2606 17.0699 19.6846L16.7308 19.7604C14.732 20.2072 12.6867 20.3733 10.6533 20.2588L8.0001 22.6327C7.79637 22.815 7.50959 22.872 7.25164 22.7815C6.99369 22.691 6.80543 22.4673 6.76029 22.1976L6.32148 19.5763C4.61909 19.0473 3.29919 17.6691 2.85579 15.9219C2.04807 12.7391 2.04807 9.40488 2.85579 6.22204C3.33386 4.33816 4.83092 2.88334 6.7277 2.45935L7.06673 2.38357ZM16.4036 3.84744C13.437 3.18432 10.3606 3.18432 7.39395 3.84744L7.05492 3.92323C5.71009 4.22383 4.64866 5.25532 4.3097 6.591C3.56343 9.53171 3.56343 12.6122 4.3097 15.5529C4.64866 16.8886 5.71008 17.9201 7.05492 18.2207L7.14448 18.2407C7.44237 18.3073 7.67018 18.5478 7.72058 18.8488L8.01485 20.6068L9.88722 18.9315C10.0384 18.7962 10.2379 18.7279 10.4403 18.7423C12.4338 18.8834 14.4427 18.7348 16.4036 18.2965L16.7426 18.2207C18.0875 17.9201 19.1489 16.8886 19.4879 15.5529C20.2341 12.6122 20.2341 9.53171 19.4879 6.591C19.1489 5.25532 18.0875 4.22384 16.7426 3.92323L16.4036 3.84744Z"
              fill="black"/>
    </symbol>
    <symbol id="icon-restore" viewBox="0 0 24 24" fill="blue">
        <path d="M 2 2 L 4.9394531 4.9394531 C 3.1262684 6.7482143 2 9.2427079 2 12 C 2 17.514 6.486 22 12 22 C 17.514 22 22 17.514 22 12 C 22 6.486 17.514 2 12 2 L 12 4 C 16.411 4 20 7.589 20 12 C 20 16.411 16.411 20 12 20 C 7.589 20 4 16.411 4 12 C 4 9.7940092 4.9004767 7.7972757 6.3496094 6.3496094 L 9 9 L 9 2 L 2 2 z"/>
    </symbol>
    <symbol id="icon-favorite_border" viewBox="0 0 24 24" fill="#000000">
        <path d="M0 0h24v24H0V0z" fill="none"/>
        <path d="M16.5 3c-1.74 0-3.41.81-4.5 2.09C10.91 3.81 9.24 3 7.5 3 4.42 3 2 5.42 2 8.5c0 3.78 3.4 6.86 8.55 11.54L12 21.35l1.45-1.32C18.6 15.36 22 12.28 22 8.5 22 5.42 19.58 3 16.5 3zm-4.4 15.55l-.1.1-.1-.1C7.14 14.24 4 11.39 4 8.5 4 6.5 5.5 5 7.5 5c1.54 0 3.04.99 3.57 2.36h1.87C13.46 5.99 14.96 5 16.5 5c2 0 3.5 1.5 3.5 3.5 0 2.89-3.14 5.74-7.9 10.05z"/>
    </symbol>
    <symbol id="icon-info" viewBox="0 0 16 16" fill="none" xmlns="http://www.w3.org/2000/svg">
        <path fill-rule="evenodd" clip-rule="evenodd"
              d="M16.0001 8.00004C16.0001 12.4185 12.4185 16.0001 8.00004 16.0001C3.58162 16.0001 0 12.4185 0 8.00004C0 3.58162 3.58162 0 8.00004 0C12.4185 0 16.0001 3.58162 16.0001 8.00004ZM8.00004 7.20004C8.21221 7.20004 8.4157 7.28432 8.56573 7.43435C8.71576 7.58438 8.80004 7.78787 8.80004 8.00004V12.0001C8.80004 12.2122 8.71576 12.4157 8.56573 12.5657C8.4157 12.7158 8.21221 12.8001 8.00004 12.8001C7.78787 12.8001 7.58438 12.7158 7.43435 12.5657C7.28432 12.4157 7.20004 12.2122 7.20004 12.0001V8.00004C7.20004 7.78787 7.28432 7.58438 7.43435 7.43435C7.58438 7.28432 7.78787 7.20004 8.00004 7.20004ZM8.00004 5.60003C8.21221 5.60003 8.4157 5.51574 8.56573 5.36571C8.71576 5.21568 8.80004 5.0122 8.80004 4.80002C8.80004 4.58785 8.71576 4.38437 8.56573 4.23434C8.4157 4.08431 8.21221 4.00002 8.00004 4.00002C7.78787 4.00002 7.58438 4.08431 7.43435 4.23434C7.28432 4.38437 7.20004 4.58785 7.20004 4.80002C7.20004 5.0122 7.28432 5.21568 7.43435 5.36571C7.58438 5.51574 7.78787 5.60003 8.00004 5.60003Z"
              fill="#63A6BB"/>
    </symbol>
    <symbol id="icon-info_outlined" viewBox="0 -960 960 960" fill="currentColor">
        <path d="M453-280h60v-240h-60v240Zm26.982-314q14.018 0 23.518-9.2T513-626q0-14.45-9.482-24.225-9.483-9.775-23.5-9.775-14.018 0-23.518 9.775T447-626q0 13.6 9.482 22.8 9.483 9.2 23.5 9.2Zm.284 514q-82.734 0-155.5-31.5t-127.266-86q-54.5-54.5-86-127.341Q80-397.681 80-480.5q0-82.819 31.5-155.659Q143-709 197.5-763t127.341-85.5Q397.681-880 480.5-880q82.819 0 155.659 31.5Q709-817 763-763t85.5 127Q880-563 880-480.266q0 82.734-31.5 155.5T763-197.684q-54 54.316-127 86Q563-80 480.266-80Zm.234-60Q622-140 721-239.5t99-241Q820-622 721.188-721 622.375-820 480-820q-141 0-240.5 98.812Q140-622.375 140-480q0 141 99.5 240.5t241 99.5Zm-.5-340Z"/>
    </symbol>
    <symbol id="icon-card" viewBox="0 0 16 16" fill="none" xmlns="http://www.w3.org/2000/svg">
        <path d="M4.80143 16C4.3613 16 3.98439 15.8432 3.67069 15.5296C3.357 15.216 3.20042 14.8395 3.20095 14.4C3.20095 13.96 3.3578 13.5832 3.67149 13.2696C3.98519 12.956 4.36183 12.7995 4.80143 12.8C5.24156 12.8 5.61847 12.9568 5.93217 13.2704C6.24586 13.584 6.40244 13.9605 6.40191 14.4C6.40191 14.84 6.24506 15.2168 5.93137 15.5304C5.61767 15.844 5.24103 16.0005 4.80143 16ZM12.8038 16C12.3637 16 11.9868 15.8432 11.6731 15.5296C11.3594 15.216 11.2028 14.8395 11.2033 14.4C11.2033 13.96 11.3602 13.5832 11.6739 13.2696C11.9876 12.956 12.3642 12.7995 12.8038 12.8C13.2439 12.8 13.6209 12.9568 13.9345 13.2704C14.2482 13.584 14.4048 13.9605 14.4043 14.4C14.4043 14.84 14.2474 15.2168 13.9337 15.5304C13.6201 15.844 13.2434 16.0005 12.8038 16ZM4.80143 12C4.20125 12 3.74778 11.7365 3.44102 11.2096C3.13427 10.6827 3.12093 10.1595 3.40101 9.64L4.48133 7.68L1.60048 1.6H0.780232C0.553498 1.6 0.366776 1.5232 0.220065 1.3696C0.0733551 1.216 0 1.02614 0 0.800003C0 0.573336 0.0768229 0.383203 0.230469 0.229603C0.384114 0.0760027 0.574038 -0.000530565 0.800238 2.76817e-06H2.10063C2.24734 2.76817e-06 2.38738 0.0400028 2.52075 0.120003C2.65412 0.200003 2.75415 0.313336 2.82084 0.460003L3.361 1.6H15.1645C15.5246 1.6 15.7714 1.73334 15.9047 2C16.0381 2.26667 16.0314 2.54667 15.8847 2.84L13.0439 7.96C12.8972 8.22667 12.7038 8.43333 12.4637 8.58C12.2236 8.72667 11.9502 8.8 11.6435 8.8H5.68169L4.80143 10.4H13.6241C13.8508 10.4 14.0375 10.4768 14.1842 10.6304C14.3309 10.784 14.4043 10.9739 14.4043 11.2C14.4043 11.4267 14.3275 11.6168 14.1738 11.7704C14.0202 11.924 13.8302 12.0005 13.604 12H4.80143Z"
              fill="#63A6BB"/>
    </symbol>
    <symbol id="icon-filter" viewBox="0 0 18 16" fill="none">
        <path d="M8.00001 16C7.71668 16 7.47901 15.904 7.28701 15.712C7.09501 15.52 6.99934 15.2827 7.00001 15V9L1.20001 1.6C0.950009 1.26667 0.912343 0.916667 1.08701 0.55C1.26168 0.183334 1.56601 0 2.00001 0H16C16.4333 0 16.7377 0.183334 16.913 0.55C17.0883 0.916667 17.0507 1.26667 16.8 1.6L11 9V15C11 15.2833 10.904 15.521 10.712 15.713C10.52 15.905 10.2827 16.0007 10 16H8.00001Z"
              fill="#63A6BB"/>
    </symbol>
    <symbol id="icon-logout" viewBox="0 96 960 960" fill="#000000">
        <path d="M635 750q-13-15-13.5-33.125T635 685l64-63H409q-19.775 0-32.388-13.36Q364 595.281 364 576.14q0-20.14 12.612-32.64Q389.225 531 409 531h288l-66-67q-13-12.267-12.5-30.081t14.714-31.866Q644.661 390 664.705 390.5 684.75 391 699 403l141 142q4.909 6.327 8.955 15.008Q853 568.689 853 577.324q0 8.636-4.045 17.106Q844.909 602.9 840 608L699.006 750.911Q686 764 668 763t-33-13ZM181 959q-38.1 0-65.05-26.975Q89 905.05 89 868V284q0-37.463 26.95-64.731Q142.9 192 181 192h251q20.2 0 33.1 13.763 12.9 13.763 12.9 32.816 0 20.053-12.9 32.737Q452.2 284 432 284H181v584h251q20.2 0 33.1 12.675 12.9 12.676 12.9 32.816 0 19.141-12.9 32.325Q452.2 959 432 959H181Z"/>
    </symbol>
    <symbol id="icon-person" viewBox="0 96 960 960" fill="#000000">
        <path d="M480 564q-76 0-129-53t-53-129q0-76 53-129t129-53q76 0 129 53t53 129q0 76-53 129t-129 53Zm244 393H236q-45 0-75.5-30.5T130 851v-37q0-41 19.688-73.854Q169.375 707.292 202 690q66-34 135.908-51 69.907-17 142-17Q552 622 622 639q70 17 136 51 32.625 17.292 52.312 50.146Q830 773 830 814v37q0 45-30.5 75.5T724 957ZM236 851h488v-37q0-11-3.5-18t-9.5-10q-55-27-114.5-42.5T480 728q-57 0-116.5 15T249 786q-6 2-9.5 9.5T236 814v37Zm244-393q32 0 54-22t22-54q0-32-22-54t-54-22q-32 0-54 22t-22 54q0 32 22 54t54 22Zm0-76Zm0 469Z"/>
    </symbol>
    <symbol id="icon-favorite" viewBox="0 0 16 16">
        <path d="M8 1.314C12.438-3.248 23.534 4.735 8 15-7.534 4.736 3.562-3.248 8 1.314z" fill-rule="evenodd"/>
    </symbol>
    <symbol id="icon-refresh" viewBox="0 0 24 24" fill="currentColor">
        <path d="M 2 2 L 4.9394531 4.9394531 C 3.1262684 6.7482143 2 9.2427079 2 12 C 2 17.514 6.486 22 12 22 C 17.514 22 22 17.514 22 12 C 22 6.486 17.514 2 12 2 L 12 4 C 16.411 4 20 7.589 20 12 C 20 16.411 16.411 20 12 20 C 7.589 20 4 16.411 4 12 C 4 9.7940092 4.9004767 7.7972757 6.3496094 6.3496094 L 9 9 L 9 2 L 2 2 z"/>
    </symbol>
    <symbol id="icon-sort" viewBox="0 0 489.389 489.389" fill="currentColor">
        <g>
            <g>
                <path d="M261.294,326.102c-8.3-7.3-21.8-6.2-29.1,2.1l-77,86.8v-346.9c0-11.4-9.4-20.8-20.8-20.8s-20.8,9.4-20.8,20.8v346.9
			l-77-86.8c-8.3-8.3-20.8-9.4-29.1-2.1c-8.3,8.3-9.4,20.8-2.1,29.1l113.4,126.9c8.5,10.5,23.5,8.9,30.2,0l114.4-126.9
			C270.694,347.002,269.694,333.402,261.294,326.102z"/>
                <path d="M483.994,134.702l-112.4-126.9c-10-10.1-22.5-10.7-31.2,0l-114.4,126.9c-7.3,8.3-6.2,21.8,2.1,29.1
			c12.8,10.2,25.7,3.2,29.1-2.1l77-86.8v345.9c0,11.4,9.4,20.8,20.8,20.8s20.8-8.3,20.8-19.8v-346.8l77,86.8
			c8.3,8.3,20.8,9.4,29.1,2.1C490.194,155.502,491.294,143.002,483.994,134.702z"/>
            </g>
        </g>
    </symbol>
    <symbol id="icon-sort-desc" viewBox="0 0 256 256" fill="currentColor">
        <path d="M232.48486,96.47107a11.99915,11.99915,0,0,1-16.97021.002L196,76.9613v67.03223a12,12,0,0,1-24,0V76.964L152.48535,96.47888a12.0001,12.0001,0,0,1-16.9707-16.9707l40-40c.019-.019.04-.03467.05908-.05347.26221-.25854.53418-.50634.81885-.74.14306-.11767.29443-.22021.4414-.33008.16651-.12451.32911-.25341.50245-.36914.17187-.11523.35058-.21533.52734-.32055.15967-.09546.31543-.19556.47949-.28345.1792-.0957.36328-.17676.54541-.26294.17285-.0813.34229-.16748.51953-.241.17676-.07324.35742-.13208.53711-.19653.18994-.06811.377-.14087.57129-.2.17969-.0542.36182-.09375.543-.13965.19824-.0498.39355-.10547.5957-.14526.209-.04151.42041-.06616.63086-.09644.17676-.02539.35059-.05884.53028-.07641.39355-.03882.78808-.05982,1.18359-.05982h0l.00928.00049c.39209.00024.78418.02075,1.1748.05933.17578.01733.34571.05.519.075.21436.03051.4292.05566.64209.0979.19678.03906.3877.09326.58106.14184.18652.04663.37451.08789.55908.14356.188.05713.36963.12793.55371.19385.18555.06616.37207.12744.55518.20312.17041.0708.334.15381.50049.23218.189.08862.37939.17285.56445.27173.15625.084.30469.17968.457.27.18408.10962.37012.21411.54981.33422.16455.11011.31884.23316.47753.35083.15528.11548.314.22388.46485.34766.26416.217.51562.44873.76025.687.0376.03662.07862.06763.11572.105l39.999,39.99317A11.99974,11.99974,0,0,1,232.48486,96.47107ZM48,139.99353h71.999a12,12,0,0,0,0-24H48a12,12,0,0,0,0,24Zm0-64h55.999a12,12,0,0,0,0-24H48a12,12,0,0,0,0,24Zm135.999,104H48a12,12,0,0,0,0,24H183.999a12,12,0,0,0,0-24Z"/>
    </symbol>
    <symbol id="icon-sort-asc" viewBox="0 0 256 256" fill="currentColor">
        <path d="M232.4834,176.4867l-39.999,39.99316c-.03613.03613-.07617.06641-.1123.102-.24609.23975-.499.47217-.76465.69043-.14453.11914-.29736.22266-.44629.3335-.165.123-.32617.251-.49756.36572-.17236.11572-.35107.21533-.52783.3208-.15967.09521-.31543.19531-.47949.2832-.17871.09571-.3623.17676-.54492.2627-.17285.08154-.34278.168-.52.24121-.17578.07275-.356.13183-.53467.1958-.19043.06836-.37891.1416-.57422.20068-.17822.0542-.35888.09326-.53906.13867-.19922.0503-.39649.10645-.59961.14649-.20752.041-.417.06543-.626.0957-.17822.02539-.35351.05908-.53418.07715-.39355.03858-.78857.05957-1.18359.05957s-.79-.021-1.18359-.05957c-.1792-.01758-.353-.05127-.52979-.07666-.21094-.03027-.42187-.05469-.63135-.09619-.20117-.04-.39648-.0957-.59423-.14551-.18213-.04541-.36475-.08545-.54444-.13965-.19385-.05859-.38086-.13134-.57031-.1997-.17969-.06446-.36084-.12354-.53858-.19678-.17675-.07373-.34619-.15967-.519-.24121-.18213-.08594-.36621-.167-.54492-.2627-.165-.08789-.32129-.18847-.48145-.28418-.17626-.10547-.35449-.20459-.52587-.31933-.17432-.1167-.33789-.24659-.50538-.37159-.146-.10937-.29589-.21093-.438-.32763-.28516-.23389-.55762-.48242-.81983-.74121-.019-.01856-.04-.03418-.05859-.05274l-40-40a12.0001,12.0001,0,0,1,16.9707-16.9707L172,179.02332V111.99353a12,12,0,0,1,24,0v67.03223L215.51465,159.514A12.0001,12.0001,0,0,1,232.4834,176.4867ZM119.999,115.99353H48a12,12,0,0,0,0,24h71.999a12,12,0,0,0,0-24Zm-71.999-40H183.999a12,12,0,0,0,0-24H48a12,12,0,0,0,0,24Zm56,104H48a12,12,0,0,0,0,24h56a12,12,0,0,0,0-24Z"/>
    </symbol>
    <symbol id="icon-pin" viewBox="0 0 30 30">
        <path d="M21,12  H9V9c0-3.314,2.686-6,6-6h0c3.314,0,6,2.686,6,6V12z"
              style="fill:none;stroke:#000000;stroke-width:2;stroke-linecap:round;stroke-linejoin:round;stroke-miterlimit:14;"/>
        <path d="M24,11H6c-1.105,0-2,0.895-2,2v12c0,1.105,0.895,2,2,2h18c1.105,0,2-0.895,2-2V13C26,11.895,25.105,11,24,11z M15,21  c-1.105,0-2-0.896-2-2c0-1.105,0.895-2,2-2s2,0.895,2,2C17,20.104,16.105,21,15,21z M21,21c-1.105,0-2-0.896-2-2  c0-1.105,0.895-2,2-2s2,0.895,2,2C23,20.104,22.105,21,21,21z M9,21c-1.105,0-2-0.896-2-2c0-1.105,0.895-2,2-2s2,0.895,2,2  C11,20.104,10.105,21,9,21z"/>
    </symbol>
    <symbol id="icon-double-arrow" viewBox="0 0 18 18">
        <path d="M7.06514 9L1 2.76849L1.74494 2L8.53044 9L1.74494 16L1 15.2315L7.06514 9ZM15.5347 9L9.46957 2.76849L10.2145 2L17 9L10.2145 16L9.46957 15.2315L15.5347 9Z"
              fill="black"/>
    </symbol>
    <symbol id="icon-cash" viewBox="0 0 20 20" fill="currentColor">
        <path d="M2.77292 17H17.2271C19.06 17 20 16.1055 20 14.379V5.62762C20 3.90117 19.06 3 17.2271 3H2.77292C0.948425 3 0 3.90117 0 5.62762V14.379C0 16.1055 0.948425 17 2.77292 17ZM2.86894 15.4148C2.08298 15.4148 1.6561 15.0267 1.6561 14.2406V5.76744C1.6561 4.97985 2.08298 4.58518 2.86894 4.58518H17.1311C17.9032 4.58518 18.3439 4.97985 18.3439 5.76744V14.2406C18.3439 15.0267 17.9032 15.4148 17.1311 15.4148H2.86894Z"/>
        <path d="M10.553 10.9883H7V9.79688H10.5265C10.8113 9.79688 11.0453 9.74349 11.2285 9.63672C11.4139 9.52995 11.5508 9.38151 11.6391 9.19141C11.7296 9.0013 11.7737 8.77865 11.7715 8.52344C11.7737 8.27344 11.7296 8.04948 11.6391 7.85156C11.5508 7.65104 11.4161 7.49349 11.2351 7.37891C11.0563 7.26172 10.8289 7.20312 10.553 7.20312H9.22185V14H7.99669V6H10.553C11.0784 6 11.5232 6.11198 11.8874 6.33594C12.2517 6.55729 12.5276 6.85807 12.7152 7.23828C12.9051 7.61589 13 8.04036 13 8.51172C13 9.0013 12.904 9.43229 12.7119 9.80469C12.5199 10.1745 12.2417 10.4648 11.8775 10.6758C11.5132 10.8841 11.0717 10.9883 10.553 10.9883ZM10.7086 11.582V12.7734H7V11.582H10.7086Z"/>
    </symbol>
    <symbol id="icon-payment_card" viewBox="0 0 20 20" fill="currentColor">
        <path d="M4.02058 13.9511H6.09157C6.59029 13.9511 6.91996 13.629 6.91996 13.1759V11.6791C6.91996 11.2178 6.59029 10.9023 6.09157 10.9023H4.02058C3.52186 10.9023 3.19219 11.2178 3.19219 11.6791V13.1759C3.19219 13.629 3.52186 13.9511 4.02058 13.9511ZM0.949435 8.25056H19.059V6.35856H0.949435V8.25056ZM2.77292 17H17.2271C19.06 17 20 16.1055 20 14.379V5.62762C20 3.90117 19.06 3 17.2271 3H2.77292C0.948425 3 0 3.90117 0 5.62762V14.379C0 16.1055 0.948425 17 2.77292 17ZM2.86894 15.4148C2.08298 15.4148 1.6561 15.0267 1.6561 14.2406V5.76744C1.6561 4.97985 2.08298 4.58518 2.86894 4.58518H17.1311C17.9032 4.58518 18.3439 4.97985 18.3439 5.76744V14.2406C18.3439 15.0267 17.9032 15.4148 17.1311 15.4148H2.86894Z"/>
    </symbol>
    <symbol id="icon-pencil" viewBox="0 0 16 16" fill="currentColor">
        <path d="M12.2673 2.90743C11.6718 2.31292 10.7073 2.31292 10.1117 2.90743L9.57217 3.44998L3.82826 9.19085L3.81605 9.20313C3.81312 9.20611 3.81312 9.20923 3.80995 9.20923C3.80384 9.21839 3.79469 9.22747 3.78871 9.23662C3.78871 9.23968 3.78553 9.23968 3.78553 9.24273C3.77943 9.25188 3.7765 9.25799 3.77027 9.26714C3.76734 9.27019 3.76734 9.27315 3.76427 9.2763C3.76122 9.28545 3.75816 9.29156 3.75501 9.30071C3.75501 9.30364 3.75209 9.30364 3.75209 9.30682L2.47764 13.1391C2.45932 13.1925 2.45646 13.25 2.4694 13.3051C2.48234 13.3601 2.51055 13.4103 2.55079 13.45C2.60843 13.5069 2.68625 13.5387 2.76727 13.5385C2.80037 13.5379 2.83319 13.5327 2.86483 13.5232L6.69414 12.2457C6.69709 12.2457 6.69709 12.2457 6.70024 12.2428C6.70988 12.24 6.71909 12.2358 6.72761 12.2305C6.72994 12.2302 6.73211 12.2292 6.73381 12.2276C6.74287 12.2214 6.75507 12.2152 6.76423 12.2091C6.77329 12.2031 6.78254 12.194 6.79169 12.1879C6.79475 12.1847 6.7977 12.1847 6.7977 12.1818C6.80087 12.1787 6.80698 12.1757 6.81001 12.1696L13.0935 5.88605C13.688 5.29049 13.688 4.32604 13.0935 3.73055L12.2673 2.90743ZM6.5966 11.5293L4.47467 9.40743L9.7856 4.0965L11.9075 6.21833L6.5966 11.5293ZM4.17579 9.97142L6.02956 11.8251L3.24596 12.7518L4.17579 9.97142ZM12.6637 5.4592L12.3405 5.78544L10.2185 3.66344L10.5448 3.33726C10.9018 2.9806 11.4804 2.9806 11.8374 3.33726L12.6667 4.16652C13.021 4.52509 13.0196 5.10233 12.6637 5.4592Z"/>
    </symbol>
    <symbol id="icon-refunded" viewBox="0 -960 960 960" fill="currentColor">
        <path d="m480-334 42-42-74-74h182v-60H448l74-74-42-42-146 146 146 146Zm0 254q-82 0-155-31.5t-127.5-86Q143-252 111.5-325T80-480q0-83 31.5-156t86-127Q252-817 325-848.5T480-880q83 0 156 31.5T763-763q54 54 85.5 127T880-480q0 82-31.5 155T763-197.5q-54 54.5-127 86T480-80Zm0-60q142 0 241-99.5T820-480q0-142-99-241t-241-99q-141 0-240.5 99T140-480q0 141 99.5 240.5T480-140Zm0-340Z"/>
    </symbol>
    <symbol id="icon-upload" viewBox="0 0 24 24">
        <g id="SVGRepo_bgCarrier" stroke-width="0"/>
        <g id="SVGRepo_tracerCarrier" stroke-linecap="round" stroke-linejoin="round"/>
        <g id="SVGRepo_iconCarrier">
            <path d="M7 11C8.10457 11 9 10.1046 9 9C9 7.89543 8.10457 7 7 7C5.89543 7 5 7.89543 5 9C5 10.1046 5.89543 11 7 11Z"
                  stroke="#72bfd7" stroke-width="1.5" stroke-linecap="round" stroke-linejoin="round"/>
            <path d="M5.56055 21C11.1305 11.1 15.7605 9.35991 21.0005 15.7899" stroke="#72bfd7" stroke-width="1.5"
                  stroke-linecap="round" stroke-linejoin="round"/>
            <path d="M12.28 3H5C3.93913 3 2.92172 3.42136 2.17157 4.17151C1.42142 4.92165 1 5.93913 1 7V17C1 18.0609 1.42142 19.0782 2.17157 19.8284C2.92172 20.5785 3.93913 21 5 21H17C18.0609 21 19.0783 20.5785 19.8284 19.8284C20.5786 19.0782 21 18.0609 21 17V12"
                  stroke="#72bfd7" stroke-width="1.5" stroke-linecap="round" stroke-linejoin="round"/>
            <path d="M18.75 8.82996V0.829956" stroke="#72bfd7" stroke-width="1.5" stroke-linecap="round"
                  stroke-linejoin="round"/>
            <path d="M15.5508 4.02996L18.7508 0.829956L21.9508 4.02996" stroke="#72bfd7" stroke-width="1.5"
                  stroke-linecap="round" stroke-linejoin="round"/>
        </g>
    </symbol>
    <symbol id="icon-barcode_search" viewBox="0 0 478 512.01">
        <path fill="currentColor"
              d="M69.7 55.96h32.12v265.57H69.7V55.96zm173.03 176.68c9.33.14 18.47 1.29 27.27 3.36V55.96h22.95v187.8c9.78 4.39 18.95 9.99 27.28 16.6V55.96h32.11v242.13c.49.87.96 1.74 1.43 2.62 7.6 14.39 12.58 30.51 14.2 47.77 1.19 12.63.5 25.03-1.84 36.85a126.657 126.657 0 0 1-10.19 30.48l54.37 49.11c2.5 2.26 2.69 6.13.42 8.63l-33.04 36.46a6.136 6.136 0 0 1-8.64.42L317.04 463a127.014 127.014 0 0 1-28 15.82c-11.32 4.62-23.52 7.68-36.34 8.89-17.24 1.62-34-.27-49.57-5.06-16.18-4.98-31.09-13.12-43.92-23.75a127.834 127.834 0 0 1-31.53-38.72c-7.61-14.38-12.59-30.51-14.21-47.76-1.62-17.23.26-34 5.06-49.57 2.65-8.63 6.21-16.91 10.56-24.7V55.96h9.76v227.28c1.11-1.46 2.25-2.9 3.42-4.31 6.94-8.39 14.96-15.9 23.85-22.3V55.96h32.13v183.9c8.66-3.04 17.79-5.19 27.27-6.32V55.96h17.21v176.68zm63.05 49.23c-20.9-17.31-47.61-25.53-74.62-22.99-40.99 3.85-75.76 32.04-87.97 71.57a101.788 101.788 0 0 0-4.03 39.56c2.53 27 15.62 51.72 36.51 69.01 10.24 8.48 22.14 14.98 35.04 18.95 12.44 3.83 25.83 5.33 39.58 4.04 13.73-1.29 26.61-5.27 38.11-11.36a102.106 102.106 0 0 0 30.9-25.15c8.48-10.24 14.98-22.14 18.95-35.04 3.83-12.44 5.33-25.83 4.04-39.58a101.63 101.63 0 0 0-11.35-38.1 102.205 102.205 0 0 0-25.16-30.91zM9.26 0H94.9v18.52H18.51V66.9H0V9.26C0 4.15 4.14 0 9.26 0zm9.25 310.59v48.38H94.9v18.52H9.26c-5.12 0-9.26-4.15-9.26-9.26v-57.64h18.51zM383.1 0h85.64c5.11 0 9.26 4.15 9.26 9.26V66.9h-18.51V18.52H383.1V0zM478 310.59v57.64c0 5.11-4.15 9.26-9.26 9.26H383.1v-18.52h76.39v-48.38H478zM379.62 55.96h28.68v265.57h-28.68V55.96z"/>
    </symbol>
    <symbol id="icon-doc_tree" viewBox="0 -960 960 960" fill="currentColor">
        <path d="M212.309-180.001q-30.308 0-51.308-21t-21-51.308v-535.382q0-30.308 21-51.308t51.308-21h535.382q30.308 0 51.308 21t21 51.308v274.768q-7.308-1.231-14.115-1.846-6.808-.615-14.731-.615H760v-272.307q0-4.616-3.846-8.463-3.847-3.846-8.463-3.846H212.309q-4.616 0-8.463 3.846-3.846 3.847-3.846 8.463v535.382q0 4.616 3.846 8.463 3.847 3.846 8.463 3.846h118.615q3.23 16.615 7.999 31.422 4.77 14.808 12.308 28.577H212.309ZM200-280v40V-800v520Zm90.001-50.001h42.846q9.154-42.461 32.307-78.576 23.154-36.115 57.846-61.422H290.001v139.998Zm0-240h139.998v-139.998H290.001v139.998Zm269.999 430q-57.922 0-98.961-41.038-41.038-41.039-41.038-98.961t41.038-98.961q41.039-41.038 98.961-41.038h76.154V-360H560q-33 0-56.5 23.5T480-280q0 33 23.5 56.5T560-200h76.154v59.999H560Zm-29.999-430h139.998v-139.998H530.001v139.998Zm29.999 320v-59.998h240v59.998H560Zm163.846 110V-200H800q33 0 56.5-23.5T880-280q0-33-23.5-56.5T800-360h-76.154v-59.999H800q57.922 0 98.961 40.731 41.038 40.73 41.038 99.268 0 57.922-41.038 98.961-41.039 41.038-98.961 41.038h-76.154Z"/>
    </symbol>
    <symbol id="icon-more-time" viewBox="0 -960 960 960" fill="currentColor">
        <path d="M440-120q-75 0-140.5-28T185-225q-49-49-77-114.5T80-480q0-75 28-140.5T185-735q49-49 114.5-77T440-840q21 0 40.5 2.5T520-830v82q-20-6-39.5-9t-40.5-3q-118 0-199 81t-81 199q0 118 81 199t199 81q118 0 199-81t81-199q0-11-1-20t-3-20h82q2 11 2 20v20q0 75-28 140.5T695-225q-49 49-114.5 77T440-120Zm112-192L400-464v-216h80v184l128 128-56 56Zm168-288v-120H600v-80h120v-120h80v120h120v80H800v120h-80Z"/>
    </symbol>
    <symbol id="icon-rejected" viewBox="0 -960 960 960" fill="currentColor">
        <path d="M819-28 701-146q-48 32-103.5 49T480-80q-83 0-156-31.5T197-197q-54-54-85.5-127T80-480q0-62 17-117.5T146-701L27-820l57-57L876-85l-57 57ZM480-160q45 0 85.5-12t76.5-33L487-360l-63 64-170-170 56-56 114 114 7-8-226-226q-21 36-33 76.5T160-480q0 133 93.5 226.5T480-160Zm335-100-59-59q21-35 32.5-75.5T800-480q0-133-93.5-226.5T480-800q-45 0-85.5 11.5T319-756l-59-59q48-31 103.5-48T480-880q83 0 156 31.5T763-763q54 54 85.5 127T880-480q0 61-17 116.5T815-260ZM602-474l-56-56 104-104 56 56-104 104Zm-64-64ZM424-424Z"/>
    </symbol>
    <symbol id="icon-timer" viewBox="0 -960 960 960" fill="currentColor">
        <path d="M360-840v-80h240v80H360Zm80 440h80v-240h-80v240Zm40 320q-74 0-139.5-28.5T226-186q-49-49-77.5-114.5T120-440q0-74 28.5-139.5T226-694q49-49 114.5-77.5T480-800q62 0 119 20t107 58l56-56 56 56-56 56q38 50 58 107t20 119q0 74-28.5 139.5T734-186q-49 49-114.5 77.5T480-80Zm0-80q116 0 198-82t82-198q0-116-82-198t-198-82q-116 0-198 82t-82 198q0 116 82 198t198 82Zm0-280Z"/>
    </symbol>
    <symbol id="icon-verified" viewBox="0 -960 960 960" fill="currentColor">
        <path d="m344-60-76-128-144-32 14-148-98-112 98-112-14-148 144-32 76-128 136 58 136-58 76 128 144 32-14 148 98 112-98 112 14 148-144 32-76 128-136-58-136 58Zm34-102 102-44 104 44 56-96 110-26-10-112 74-84-74-86 10-112-110-24-58-96-102 44-104-44-56 96-110 24 10 112-74 86 74 84-10 114 110 24 58 96Zm102-318Zm-42 142 226-226-56-58-170 170-86-84-56 56 142 142Z"/>
    </symbol>
    <symbol id="icon-save" viewBox="0 -960 960 960" fill="currentColor">
        <path d="M800-663.077v438.462Q800-197 781.5-178.5 763-160 735.385-160h-510.77Q197-160 178.5-178.5 160-197 160-224.615v-510.77Q160-763 178.5-781.5 197-800 224.615-800h438.462L800-663.077ZM760-646 646-760H224.615q-10.769 0-17.692 6.923T200-735.385v510.77q0 10.769 6.923 17.692T224.615-200h510.77q10.769 0 17.692-6.923T760-224.615V-646ZM480-298.461q33.077 0 56.539-23.462Q560-345.384 560-378.461T536.539-435Q513.077-458.462 480-458.462T423.461-435Q400-411.538 400-378.461t23.461 56.538q23.462 23.462 56.539 23.462Zm-209.231-270.77h296.924v-120H270.769v120ZM200-646v446-560 114Z"/>
    </symbol>
    <symbol id="icon-certificate" viewBox="0 0 24 24" fill="currentColor">
        <path d="M0 0h24v24H0V0z" fill="none"/>
        <path d="M20 6h-2.18c.11-.31.18-.65.18-1 0-1.66-1.34-3-3-3-1.05 0-1.96.54-2.5 1.35l-.5.67-.5-.68C10.96 2.54 10.05 2 9 2 7.34 2 6 3.34 6 5c0 .35.07.69.18 1H4c-1.11 0-1.99.89-1.99 2L2 19c0 1.11.89 2 2 2h16c1.11 0 2-.89 2-2V8c0-1.11-.89-2-2-2zm-5-2c.55 0 1 .45 1 1s-.45 1-1 1-1-.45-1-1 .45-1 1-1zM9 4c.55 0 1 .45 1 1s-.45 1-1 1-1-.45-1-1 .45-1 1-1zm11 15H4v-2h16v2zm0-5H4V8h5.08L7 10.83 8.62 12 12 7.4l3.38 4.6L17 10.83 14.92 8H20v6z"/>
    </symbol>
    <symbol id="icon-config" fill="currentColor" viewBox="0 0 24 24">
        <g id="Settings">
            <g>
                <path d="M12.6,20.936H11.3a.883.883,0,0,1-.852-.654l-.774-2.833-2.5,1.435a.886.886,0,0,1-1.06-.138l-.925-.919a.884.884,0,0,1-.143-1.066l1.469-2.545L6.509,14.2l-2.787-.747a.882.882,0,0,1-.654-.851V11.3a.882.882,0,0,1,.652-.85l2.839-.777L5.12,7.171a.885.885,0,0,1,.141-1.062l.918-.918A.885.885,0,0,1,7.24,5.049L9.792,6.514l.012,0,.745-2.79a.881.881,0,0,1,.851-.655h1.3a.883.883,0,0,1,.852.655l.762,2.838,2.509-1.441a.885.885,0,0,1,1.059.138l.926.919a.882.882,0,0,1,.141,1.067L17.483,9.777l.008.022,2.786.746a.883.883,0,0,1,.653.851v1.3a.883.883,0,0,1-.654.852l-2.837.774,1.439,2.505a.881.881,0,0,1-.141,1.063l-.917.917a.888.888,0,0,1-1.063.141l-2.539-1.462L14.2,17.5l-.745,2.785A.885.885,0,0,1,12.6,20.936Zm-1.21-1h1.119l.738-2.756a.888.888,0,0,1,.528-.592l.134-.052a.873.873,0,0,1,.76.057l2.51,1.445.789-.789-1.423-2.478a.881.881,0,0,1-.048-.78l.052-.125a.875.875,0,0,1,.584-.51l2.8-.749v-1.12l-2.755-.737a.885.885,0,0,1-.592-.529l-.052-.132a.882.882,0,0,1,.057-.763L18.04,6.818l-.8-.79-2.48,1.425a.878.878,0,0,1-.772.052l-.115-.047a.888.888,0,0,1-.518-.588l-.748-2.806H11.492l-.738,2.762a.883.883,0,0,1-.539.6l-.12.045a.874.874,0,0,1-.751-.058L6.822,5.962l-.789.789L7.455,9.227a.886.886,0,0,1,.046.785l-.051.12a.876.876,0,0,1-.579.5l-2.8.758v1.121l2.757.738a.889.889,0,0,1,.591.525l.048.121a.874.874,0,0,1-.055.77L5.958,17.181l.8.791,2.47-1.419a.878.878,0,0,1,.787-.045l.106.044a.874.874,0,0,1,.526.591ZM9.75,17.482l.008,0ZM9.6,17.421l.007,0ZM6.487,14.147h0Zm.044-4.411h0Zm7.724-3.2Z"/>
                <path d="M12,15a3,3,0,1,1,3-3A3,3,0,0,1,12,15Zm0-5a2,2,0,1,0,2,2A2,2,0,0,0,12,10Z"/>
            </g>
        </g>
    </symbol>
    <symbol id="icon-home" viewBox="0 0 576 512" fill="currentColor">
        <path d="M575.8 255.5c0 18-15 32.1-32 32.1h-32l.7 160.2c0 2.7-.2 5.4-.5 8.1V472c0 22.1-17.9 40-40 40H456c-1.1 0-2.2 0-3.3-.1c-1.4 .1-2.8 .1-4.2 .1H416 392c-22.1 0-40-17.9-40-40V448 384c0-17.7-14.3-32-32-32H256c-17.7 0-32 14.3-32 32v64 24c0 22.1-17.9 40-40 40H160 128.1c-1.5 0-3-.1-4.5-.2c-1.2 .1-2.4 .2-3.6 .2H104c-22.1 0-40-17.9-40-40V360c0-.9 0-1.9 .1-2.8V287.6H32c-18 0-32-14-32-32.1c0-9 3-17 10-24L266.4 8c7-7 15-8 22-8s15 2 21 7L564.8 231.5c8 7 12 15 11 24z"/>
    </symbol>
    <symbol id="icon-excel" viewBox="0 0 24 24" fill="currentColor">
        <path d="M13.5 23.5a.487.487 0 0 1-.076-.006l-13-2A.5.5 0 0 1 0 21V4a.5.5 0 0 1 .388-.487l13-3A.497.497 0 0 1 14 1v22a.496.496 0 0 1-.5.5zM1 20.571l12 1.846V1.628L1 4.398v16.173z"/>
        <path d="M23.5 21.5h-10a.5.5 0 0 1 0-1H23v-17h-9.5a.5.5 0 0 1 0-1h10a.5.5 0 0 1 .5.5v18a.5.5 0 0 1-.5.5zM9.5 16.5a.497.497 0 0 1-.424-.235l-5-8a.5.5 0 0 1 .848-.53l5 8a.5.5 0 0 1-.424.765z"/>
        <path d="M4.5 16.5a.5.5 0 0 1-.424-.765l5-8a.5.5 0 0 1 .848.53l-5 8a.5.5 0 0 1-.424.235zM17.5 21.5a.5.5 0 0 1-.5-.5V3a.5.5 0 0 1 1 0v18a.5.5 0 0 1-.5.5z"/>
        <path d="M23.5 18.5h-10a.5.5 0 0 1 0-1h10a.5.5 0 0 1 0 1zM23.5 15.5h-10a.5.5 0 0 1 0-1h10a.5.5 0 0 1 0 1zM23.5 12.5h-10a.5.5 0 0 1 0-1h10a.5.5 0 0 1 0 1zM23.5 9.5h-10a.5.5 0 0 1 0-1h10a.5.5 0 1 1 0 1zM23.5 6.5h-10a.5.5 0 0 1 0-1h10a.5.5 0 1 1 0 1z"/>
    </symbol>
    <symbol id="icon-edit" viewBox="0 0 512 512" fill="currentColor">
        <!--        <path d="M200-120q-33 0-56.5-23.5T120-200v-560q0-33 23.5-56.5T200-840h357l-80 80H200v560h560v-278l80-80v358q0 33-23.5 56.5T760-120H200Zm280-360ZM360-360v-170l367-367q12-12 27-18t30-6q16 0 30.5 6t26.5 18l56 57q11 12 17 26.5t6 29.5q0 15-5.5 29.5T897-728L530-360H360Zm481-424-56-56 56 56ZM440-440h56l232-232-28-28-29-28-231 231v57Zm260-260-29-28 29 28 28 28-28-28Z"/>-->
        <path d="M441 58.9L453.1 71c9.4 9.4 9.4 24.6 0 33.9L424 134.1 377.9 88 407 58.9c9.4-9.4 24.6-9.4 33.9 0zM209.8 256.2L344 121.9 390.1 168 255.8 302.2c-2.9 2.9-6.5 5-10.4 6.1l-58.5 16.7 16.7-58.5c1.1-3.9 3.2-7.5 6.1-10.4zM373.1 25L175.8 222.2c-8.7 8.7-15 19.4-18.3 31.1l-28.6 100c-2.4 8.4-.1 17.4 6.1 23.6s15.2 8.5 23.6 6.1l100-28.6c11.8-3.4 22.5-9.7 31.1-18.3L487 138.9c28.1-28.1 28.1-73.7 0-101.8L474.9 25C446.8-3.1 401.2-3.1 373.1 25zM88 64C39.4 64 0 103.4 0 152V424c0 48.6 39.4 88 88 88H360c48.6 0 88-39.4 88-88V312c0-13.3-10.7-24-24-24s-24 10.7-24 24V424c0 22.1-17.9 40-40 40H88c-22.1 0-40-17.9-40-40V152c0-22.1 17.9-40 40-40H200c13.3 0 24-10.7 24-24s-10.7-24-24-24H88z"/>
    </symbol>
    <symbol id="icon-cart" fill="currentColor" focusable="false" aria-hidden="true" viewBox="0 0 24 24">
        <path d="M7 18c-1.1 0-1.99.9-1.99 2S5.9 22 7 22s2-.9 2-2-.9-2-2-2M1 2v2h2l3.6 7.59-1.35 2.45c-.16.28-.25.61-.25.96 0 1.1.9 2 2 2h12v-2H7.42c-.14 0-.25-.11-.25-.25l.03-.12.9-1.63h7.45c.75 0 1.41-.41 1.75-1.03l3.58-6.49c.08-.14.12-.31.12-.48 0-.55-.45-1-1-1H5.21l-.94-2zm16 16c-1.1 0-1.99.9-1.99 2s.89 2 1.99 2 2-.9 2-2-.9-2-2-2"/>
    </symbol>
    <symbol id="icon-left-arrow" height="24px" viewBox="0 0 24 24" width="24px" fill="currentColor">
        <path d="M400-80 0-480l400-400 71 71-329 329 329 329-71 71Z"/>
    </symbol>
    <symbol id="icon-phone" height="24px" viewBox="0 0 224 224" width="24px" fill="">
        <path d="M798-120q-125 0-247-54.5T329-329Q229-429 174.5-551T120-798q0-18 12-30t30-12h162q14 0 25 9.5t13 22.5l26 140q2 16-1 27t-11 19l-97 98q20 37 47.5 71.5T387-386q31 31 65 57.5t72 48.5l94-94q9-9 23.5-13.5T670-390l138 28q14 4 23 14.5t9 23.5v162q0 18-12 30t-30 12ZM241-600l66-66-17-94h-89q5 41 14 81t26 79Zm358 358q39 17 79.5 27t81.5 13v-88l-94-19-67 67ZM241-600Zm358 358Z"/>
    </symbol>
    <symbol id="icon-mail" height="24px" viewBox="0 0 24 24" width="24px" fill="">
        <path d="M160-160q-33 0-56.5-23.5T80-240v-480q0-33 23.5-56.5T160-800h640q33 0 56.5 23.5T880-720v480q0 33-23.5 56.5T800-160H160Zm320-280L160-640v400h640v-400L480-440Zm0-80 320-200H160l320 200ZM160-640v-80 480-400Z"/>
    </symbol>
    <symbol id="icon-location" height="24px" viewBox="0 0 24 24" width="24px" fill="red">
        <path d="M480-480q33 0 56.5-23.5T560-560q0-33-23.5-56.5T480-640q-33 0-56.5 23.5T400-560q0 33 23.5 56.5T480-480Zm0 294q122-112 181-203.5T720-552q0-109-69.5-178.5T480-800q-101 0-170.5 69.5T240-552q0 71 59 162.5T480-186Zm0 106Q319-217 239.5-334.5T160-552q0-150 96.5-239T480-880q127 0 223.5 89T800-552q0 100-79.5 217.5T480-80Zm0-480Z"/>
    </symbol>
    <!--    <symbol id="icon-time" height="24px" viewBox="0 0 24 24" width="24px" fill="">-->
    <!--        <path d="m612-292 56-56-148-148v-184h-80v216l172 172ZM480-80q-83 0-156-31.5T197-197q-54-54-85.5-127T80-480q0-83 31.5-156T197-763q54-54 127-85.5T480-880q83 0 156 31.5T763-763q54 54 85.5 127T880-480q0 83-31.5 156T763-197q-54 54-127 85.5T480-80Zm0-400Zm0 320q133 0 226.5-93.5T800-480q0-133-93.5-226.5T480-800q-133 0-226.5 93.5T160-480q0 133 93.5 226.5T480-160Z"/>-->
    <!--    </symbol>-->
    <symbol id="icon-test" xmlns="http://www.w3.org/2000/svg" height="24px" viewBox="0 -960 960 960" width="24px"
            fill="#e8eaed">
        <path d="M16.5,0C7.402,0,0,7.402,0,16.5C0,25.598,7.402,33,16.5,33C25.598,33,33,25.598,33,16.5C33,7.402,25.598,0,16.5,0z
		 M16.5,29C9.607,29,4,23.393,4,16.5C4,9.607,9.607,4,16.5,4C23.393,4,29,9.607,29,16.5C29,23.393,23.393,29,16.5,29z M18.969,7.969
		v9.938c0,1.104-0.896,2-2,2h-6.938c-1.104,0-2-0.896-2-2c0-1.104,0.896-2,2-2h4.938V7.969c0-1.104,0.896-2,2-2
		S18.969,6.863,18.969,7.969z"/>
    </symbol>
</svg>